<svg enable-background="new 0 0 80 40" viewBox="0 0 80 40" xmlns="http://www.w3.org/2000/svg"><path d="m-81-25.7h31.9v38.7h-31.9z" fill="#edecdd"/><path d="m-76.3 22h31.9v38.7h-31.9z" fill="#e5e5e5"/><path d="m46.1 10.6-1.6-10.6 6.8 5.3s4.3-3.1 10.6 0l7.1-5.3-1.6 10.6s3.9 13.7-10.7 13.7-10.6-13.7-10.6-13.7z" fill="#f7f7f7"/><g fill="none" stroke="#f7f7f7" stroke-miterlimit="10"><path d="m61.9 16.1 11.2-1.3"/><path d="m62.3 17.3 10.6 1.5"/><path d="m51.3 16.7-11.2-1.3"/><path d="m50.9 17.9-10.6 1.4"/></g><path d="m54.7 16.5h3.5l-1.7 1.7z" fill="#fff"/><path d="m6.1 30.6-1.6-10.6 6.8 5.3s4.3-3.1 10.6 0l7-5.3-1.6 10.6s3.9 13.7-10.7 13.7-10.5-13.7-10.5-13.7z" fill="#f7f7f7"/><path d="m21.9 36.2 11.2-1.4" fill="none" stroke="#f7f7f7" stroke-miterlimit="10"/><path d="m22.3 37.4 10.6 1.4" fill="none" stroke="#f7f7f7" stroke-miterlimit="10"/><path d="m11.3 36.7-11.2-1.3" fill="none" stroke="#f7f7f7" stroke-miterlimit="10"/><path d="m10.9 37.9-10.6 1.4" fill="none" stroke="#f7f7f7" stroke-miterlimit="10"/><path d="m14.7 36.5h3.5l-1.7 1.7z" fill="#fff"/><path d="m6.1-9.3-1.6-10.6 6.8 5.3s4.3-3.1 10.6 0l7-5.3-1.5 10.6s3.9 13.7-10.7 13.7-10.6-13.7-10.6-13.7z" fill="#f7f7f7"/><path d="m21.9-3.7 11.2-1.4" fill="none" stroke="#f7f7f7" stroke-miterlimit="10"/><path d="m22.3-2.5 10.6 1.4" fill="none" stroke="#f7f7f7" stroke-miterlimit="10"/><path d="m11.3-3.2-11.2-1.3" fill="none" stroke="#f7f7f7" stroke-miterlimit="10"/><path d="m10.9-2-10.6 1.4" fill="none" stroke="#f7f7f7" stroke-miterlimit="10"/><path d="m14.7-3.4h3.5l-1.7 1.7z" fill="#fff"/></svg>