<svg xmlns="http://www.w3.org/2000/svg" viewBox="0 0 80 40" width="80" height="40"><path fill="#edecdd" d="M-81-25.7h31.9V13H-81z"/><path fill="#e5e5e5" d="M-76.3 22h31.9v38.7h-31.9z"/><path fill="#f7f7f7" d="M46.1 10.6L44.5 0l6.8 5.3s4.3-3.1 10.6 0L69 0l-1.6 10.6s3.9 13.7-10.7 13.7-10.6-13.7-10.6-13.7z"/><path fill="none" stroke="#f7f7f7" stroke-miterlimit="10" d="M61.9 16.1l11.2-1.3m-10.8 2.5l10.6 1.5m-21.6-2.1l-11.2-1.3m10.8 2.5l-10.6 1.4"/><path fill="#fff" d="M54.7 16.5h3.5l-1.7 1.7z"/><path fill="#f7f7f7" d="M6.1 30.6L4.5 20l6.8 5.3s4.3-3.1 10.6 0l7-5.3-1.6 10.6s3.9 13.7-10.7 13.7S6.1 30.6 6.1 30.6z"/><path fill="none" stroke="#f7f7f7" stroke-miterlimit="10" d="M21.9 36.2l11.2-1.4m-10.8 2.6l10.6 1.4m-21.6-2.1L.1 35.4m10.8 2.5L.3 39.3"/><path fill="#fff" d="M14.7 36.5h3.5l-1.7 1.7z"/><path fill="#f7f7f7" d="M6.1-9.3L4.5-19.9l6.8 5.3s4.3-3.1 10.6 0l7-5.3-1.5 10.6S31.3 4.4 16.7 4.4 6.1-9.3 6.1-9.3z"/><path fill="none" stroke="#f7f7f7" stroke-miterlimit="10" d="M21.9-3.7l11.2-1.4M22.3-2.5l10.6 1.4M11.3-3.2L.1-4.5M10.9-2L.3-.6"/><path fill="#fff" d="M14.7-3.4h3.5l-1.7 1.7z"/></svg>