<?xml version="1.0" encoding="utf-8"?>
<!-- Generator: Adobe Illustrator 22.1.0, SVG Export Plug-In . SVG Version: 6.00 Build 0)  -->
<svg version="1.1" id="Layer_1" xmlns="http://www.w3.org/2000/svg" xmlns:xlink="http://www.w3.org/1999/xlink" x="0px" y="0px"
	 viewBox="0 0 80 40" style="enable-background:new 0 0 80 40;" xml:space="preserve">
<style type="text/css">
	.st0{fill:#EDECDD;}
	.st1{fill:#E5E5E5;}
	.st2{fill:#F7F7F7;}
	.st3{fill:none;stroke:#F7F7F7;stroke-miterlimit:10;}
	.st4{fill:#FFFFFF;}
</style>
<rect x="-81" y="-25.7" class="st0" width="31.9" height="38.7"/>
<rect x="-76.3" y="22" class="st1" width="31.9" height="38.7"/>
<path class="st2" d="M46.1,10.6L44.5,0l6.8,5.3c0,0,4.3-3.1,10.6,0L69,0l-1.6,10.6c0,0,3.9,13.7-10.7,13.7S46.1,10.6,46.1,10.6z"/>
<line class="st3" x1="61.9" y1="16.1" x2="73.1" y2="14.8"/>
<line class="st3" x1="62.3" y1="17.3" x2="72.9" y2="18.8"/>
<line class="st3" x1="51.3" y1="16.7" x2="40.1" y2="15.4"/>
<line class="st3" x1="50.9" y1="17.9" x2="40.3" y2="19.3"/>
<polygon class="st4" points="54.7,16.5 58.2,16.5 56.5,18.2 "/>
<path class="st2" d="M6.1,30.6L4.5,20l6.8,5.3c0,0,4.3-3.1,10.6,0l7-5.3l-1.6,10.6c0,0,3.9,13.7-10.7,13.7S6.1,30.6,6.1,30.6z"/>
<line class="st3" x1="21.9" y1="36.2" x2="33.1" y2="34.8"/>
<line class="st3" x1="22.3" y1="37.4" x2="32.9" y2="38.8"/>
<line class="st3" x1="11.3" y1="36.7" x2="0.1" y2="35.4"/>
<line class="st3" x1="10.9" y1="37.9" x2="0.3" y2="39.3"/>
<polygon class="st4" points="14.7,36.5 18.2,36.5 16.5,38.2 "/>
<path class="st2" d="M6.1-9.3L4.5-19.9l6.8,5.3c0,0,4.3-3.1,10.6,0l7-5.3L27.4-9.3c0,0,3.9,13.7-10.7,13.7S6.1-9.3,6.1-9.3z"/>
<line class="st3" x1="21.9" y1="-3.7" x2="33.1" y2="-5.1"/>
<line class="st3" x1="22.3" y1="-2.5" x2="32.9" y2="-1.1"/>
<line class="st3" x1="11.3" y1="-3.2" x2="0.1" y2="-4.5"/>
<line class="st3" x1="10.9" y1="-2" x2="0.3" y2="-0.6"/>
<polygon class="st4" points="14.7,-3.4 18.2,-3.4 16.5,-1.7 "/>
</svg>
