<svg xmlns="http://www.w3.org/2000/svg"><symbol id="cat" viewBox="0 0 864 864"><path id="meow" fill="none" stroke="#6C6F5C" stroke-miterlimit="10" stroke-width="15" d="M246.1 431.6c-33.9 33.9-44.4 47-44.4 83.5 0 0-18.9 16.3 0 35.2s58.7 13 58.7 13 11.1 30.7-23.5 44.3-129 39.2-183.8 39.2 5.2 66.5 60 28.7c0 0 156.4-2.7 233.4-44.4 0 0 141.8 52.2 226.9-41.7 72.7-80.3 76.2-101 76.2-101s34.6 74.9 59.4 99.7l-9 59a14.6 14.6 0 0 1-19.7 11.4c-14.2-4.2-57.4 51.9 15.6 44.3 68.1-7 73.4-54.7 83.8-103s21.7-294.7-17.4-345.5c0 0-70.3-140.8-230.7-130.4-87.8 5.7-172.1 87.4-212.5 165.6 0 0-22.2 49.5 20.2 20.2 0 0 41.2-62 101.2-101.1 47-30.8 106.7-35.8 157.3-11.4 9.7 4.6 18.6 10.1 25.1 16.7 0 0 18.3 16.9-15.6 26s-75.7 36.6-91.3 101.7S452.2 483.8 412.4 472s-86.8-54.8-114.2-54.8c0 0-22.1-45.6-48.2-45.6z"/></symbol><symbol id="cat" viewBox="0 0 864 864"><path id="meow" fill="none" stroke="#6C6F5C" stroke-miterlimit="10" stroke-width="15" d="M246.1 431.6c-33.9 33.9-44.4 47-44.4 83.5 0 0-18.9 16.3 0 35.2s58.7 13 58.7 13 11.1 30.7-23.5 44.3-129 39.2-183.8 39.2 5.2 66.5 60 28.7c0 0 156.4-2.7 233.4-44.4 0 0 141.8 52.2 226.9-41.7 72.7-80.3 76.2-101 76.2-101s34.6 74.9 59.4 99.7l-9 59a14.6 14.6 0 0 1-19.7 11.4c-14.2-4.2-57.4 51.9 15.6 44.3 68.1-7 73.4-54.7 83.8-103s21.7-294.7-17.4-345.5c0 0-70.3-140.8-230.7-130.4-87.8 5.7-172.1 87.4-212.5 165.6 0 0-22.2 49.5 20.2 20.2 0 0 41.2-62 101.2-101.1 47-30.8 106.7-35.8 157.3-11.4 9.7 4.6 18.6 10.1 25.1 16.7 0 0 18.3 16.9-15.6 26s-75.7 36.6-91.3 101.7S452.2 483.8 412.4 472s-86.8-54.8-114.2-54.8c0 0-22.1-45.6-48.2-45.6z"/></symbol><symbol id="toy" viewBox="0 0 864 864"><g id="scratch-post" fill="none" stroke="#6C6F5C" stroke-miterlimit="10" stroke-width="13"><path d="M337.2 642.3s30.7 38.1 68.8 0V106.1s-31.4-66.8-76.6 0zM406 131.9l26 139s-25.2 4.3-18.8 34.3 48.7 26.2 55.6 0-17.4-37.6-31.4-34.2L406 117.4m0 32.5s-35.1 19.7-76 0m76 306s-16.6 41.5-70.9 41.5m70.9 27c-19 19-40.3 20.8-70.3 14.5"/><path d="M406 561.7c-23.2 23.2-40.8 41.6-69.5 32.2l-159.7 50.3c-12.3 12.3 0 15.1 0 15.1l221.4 102 197.9-93.6s11.8-7.4-8.6-18.1S406 593.9 406 593.9m0 23.8c-32.9 20.8-64 7.3-64 7.3"/></g></symbol><symbol id="cat" viewBox="0 0 864 864"><path id="meow" fill="none" stroke="#6C6F5C" stroke-miterlimit="10" stroke-width="15" d="M246.1 431.6c-33.9 33.9-44.4 47-44.4 83.5 0 0-18.9 16.3 0 35.2s58.7 13 58.7 13 11.1 30.7-23.5 44.3-129 39.2-183.8 39.2 5.2 66.5 60 28.7c0 0 156.4-2.7 233.4-44.4 0 0 141.8 52.2 226.9-41.7 72.7-80.3 76.2-101 76.2-101s34.6 74.9 59.4 99.7l-9 59a14.6 14.6 0 0 1-19.7 11.4c-14.2-4.2-57.4 51.9 15.6 44.3 68.1-7 73.4-54.7 83.8-103s21.7-294.7-17.4-345.5c0 0-70.3-140.8-230.7-130.4-87.8 5.7-172.1 87.4-212.5 165.6 0 0-22.2 49.5 20.2 20.2 0 0 41.2-62 101.2-101.1 47-30.8 106.7-35.8 157.3-11.4 9.7 4.6 18.6 10.1 25.1 16.7 0 0 18.3 16.9-15.6 26s-75.7 36.6-91.3 101.7S452.2 483.8 412.4 472s-86.8-54.8-114.2-54.8c0 0-22.1-45.6-48.2-45.6z"/></symbol><symbol id="toy" viewBox="0 0 864 864"><g id="scratch-post" fill="none" stroke="#6C6F5C" stroke-miterlimit="10" stroke-width="13"><path d="M337.2 642.3s30.7 38.1 68.8 0V106.1s-31.4-66.8-76.6 0zM406 131.9l26 139s-25.2 4.3-18.8 34.3 48.7 26.2 55.6 0-17.4-37.6-31.4-34.2L406 117.4m0 32.5s-35.1 19.7-76 0m76 306s-16.6 41.5-70.9 41.5m70.9 27c-19 19-40.3 20.8-70.3 14.5"/><path d="M406 561.7c-23.2 23.2-40.8 41.6-69.5 32.2l-159.7 50.3c-12.3 12.3 0 15.1 0 15.1l221.4 102 197.9-93.6s11.8-7.4-8.6-18.1S406 593.9 406 593.9m0 23.8c-32.9 20.8-64 7.3-64 7.3"/></g></symbol><symbol id="wine" viewBox="0 0 864 864"><g id="wineglass" fill="none" stroke="#6C6F5C" stroke-miterlimit="10" stroke-width="13"><path d="M30.4 538.8c75.3-42 75.3-57.5 75.3-57.5s74.8-111.9 101-127.4 145.5-76.9 165.1-82.6 37.6 4.1 7.4 26.2-115.3 71.2-115.3 71.2-31.9 18.6-13.9 18.6c0 0 50.7-19.5 70.3-29.3s53.1 21.2 27.8 38.4c0 0 22.1 24.5 0 38.4s-47.8 24.9-53.9 38.4l36.7-21.2s24.6 12.2 5.8 31-98 79.3-123.8 88.3-73.2 27-160.7 114.4m260.7-182.1a440.2 440.2 0 0 0-4 57.9c0 31 55.6 41.7 55.6 41.7s49 10.6 0 23.7-128.4-4.9-144.7-10.7-14.7-22.8 19.6-22.8 45-22.9 49-37.6 4.1-36.3 4.1-36.3"/><path d="M267.1 321.5C205 272.8 190.3 254.7 205 178s38.3-115.1 38.3-115.1l161.3 5.7s65.5 138.3 22.6 201.1-106.5 82-106.5 82M201.6 198.3s195-7.8 232.3-45.1m-85.8 243.2l-67.6 32m537 332.9L742 658.8c0-42.6-133.2-173.9-133.2-173.9v-41.8a26.4 26.4 0 0 0-15.9 4.7c-9.6 6.8-18.3 23-8.9 61.9"/><path d="M555.9 443.1c0-12.4-48.4-36.2-48.4-36.2s-107.6-49.7-14.3-245.2h164.2s59.2 130.1 34 181.8-88.5 90.6-88.5 90.6-6.3 1.6-10 13.7M692.8 802c-26.6-43-57.2-57.9-57.2-57.9s-23.5-.4-28-16.4m-20.8-70.9s-2.7 31.7 48.6 39.8 23.2 22.9-2.3 27-89.9 7.7-132.8-4.3c0 0-30.1-16.6 9.3-22.4s54.6-18.9 54.6-54.6m-31.9-98.6c14 4.4 29 0 29 0l30.1 14.3s32.8 4.2 21.2-21.3-44-32-44-32H537c-9.2-4.2-48.4 25.4-4.7 39z"/><path d="M583.3 567.6l27.2 27.2c5.2 5.3-2.9 25.3-19.9 18.4s-29.7-19.7-29.7-19.7-52.9-11.2-59.8-23.9 3.3-34.6 22.5-29.3 59.7 27.3 59.7 27.3zm-54.8 34.6L508 575.8"/><path d="M537.4 632.9s22.7 9.2 39.3 7.3c0 0 2.4 24.3 27.1 14.7 0 0 9.2-7 0-20.1 0 0 .7-26.3-34.4-29.3 0 0-27.6-13.9-35.9-7s-11.6 19.3-5 35.1a52 52 0 0 0 9.6 33.2c11.5 15.9 9.3 18.1 9.3 18.1m-8.6-180.2s-13.5-18.2-10.3-35.5 17-26.1 29.4-26.1c8.2 0 11.9 15.6 7.4 27.8-2.2 6.2-6.5 11.6-13.4 13.7m16.7 20.1l-2.7-35.4m131.7-164.5c-123.3 0-232.8-68.5-232.8-68.5"/></g></symbol><symbol id="cat" viewBox="0 0 864 864"><path id="meow" fill="none" stroke="#6C6F5C" stroke-miterlimit="10" stroke-width="15" d="M246.1 431.6c-33.9 33.9-44.4 47-44.4 83.5 0 0-18.9 16.3 0 35.2s58.7 13 58.7 13 11.1 30.7-23.5 44.3-129 39.2-183.8 39.2 5.2 66.5 60 28.7c0 0 156.4-2.7 233.4-44.4 0 0 141.8 52.2 226.9-41.7 72.7-80.3 76.2-101 76.2-101s34.6 74.9 59.4 99.7l-9 59a14.6 14.6 0 0 1-19.7 11.4c-14.2-4.2-57.4 51.9 15.6 44.3 68.1-7 73.4-54.7 83.8-103s21.7-294.7-17.4-345.5c0 0-70.3-140.8-230.7-130.4-87.8 5.7-172.1 87.4-212.5 165.6 0 0-22.2 49.5 20.2 20.2 0 0 41.2-62 101.2-101.1 47-30.8 106.7-35.8 157.3-11.4 9.7 4.6 18.6 10.1 25.1 16.7 0 0 18.3 16.9-15.6 26s-75.7 36.6-91.3 101.7S452.2 483.8 412.4 472s-86.8-54.8-114.2-54.8c0 0-22.1-45.6-48.2-45.6z"/></symbol><symbol id="toy" viewBox="0 0 864 864"><g id="scratch-post" fill="none" stroke="#6C6F5C" stroke-miterlimit="10" stroke-width="13"><path d="M337.2 642.3s30.7 38.1 68.8 0V106.1s-31.4-66.8-76.6 0zM406 131.9l26 139s-25.2 4.3-18.8 34.3 48.7 26.2 55.6 0-17.4-37.6-31.4-34.2L406 117.4m0 32.5s-35.1 19.7-76 0m76 306s-16.6 41.5-70.9 41.5m70.9 27c-19 19-40.3 20.8-70.3 14.5"/><path d="M406 561.7c-23.2 23.2-40.8 41.6-69.5 32.2l-159.7 50.3c-12.3 12.3 0 15.1 0 15.1l221.4 102 197.9-93.6s11.8-7.4-8.6-18.1S406 593.9 406 593.9m0 23.8c-32.9 20.8-64 7.3-64 7.3"/></g></symbol><symbol id="wine" viewBox="0 0 864 864"><g id="wineglass" fill="none" stroke="#6C6F5C" stroke-miterlimit="10" stroke-width="13"><path d="M30.4 538.8c75.3-42 75.3-57.5 75.3-57.5s74.8-111.9 101-127.4 145.5-76.9 165.1-82.6 37.6 4.1 7.4 26.2-115.3 71.2-115.3 71.2-31.9 18.6-13.9 18.6c0 0 50.7-19.5 70.3-29.3s53.1 21.2 27.8 38.4c0 0 22.1 24.5 0 38.4s-47.8 24.9-53.9 38.4l36.7-21.2s24.6 12.2 5.8 31-98 79.3-123.8 88.3-73.2 27-160.7 114.4m260.7-182.1a440.2 440.2 0 0 0-4 57.9c0 31 55.6 41.7 55.6 41.7s49 10.6 0 23.7-128.4-4.9-144.7-10.7-14.7-22.8 19.6-22.8 45-22.9 49-37.6 4.1-36.3 4.1-36.3"/><path d="M267.1 321.5C205 272.8 190.3 254.7 205 178s38.3-115.1 38.3-115.1l161.3 5.7s65.5 138.3 22.6 201.1-106.5 82-106.5 82M201.6 198.3s195-7.8 232.3-45.1m-85.8 243.2l-67.6 32m537 332.9L742 658.8c0-42.6-133.2-173.9-133.2-173.9v-41.8a26.4 26.4 0 0 0-15.9 4.7c-9.6 6.8-18.3 23-8.9 61.9"/><path d="M555.9 443.1c0-12.4-48.4-36.2-48.4-36.2s-107.6-49.7-14.3-245.2h164.2s59.2 130.1 34 181.8-88.5 90.6-88.5 90.6-6.3 1.6-10 13.7M692.8 802c-26.6-43-57.2-57.9-57.2-57.9s-23.5-.4-28-16.4m-20.8-70.9s-2.7 31.7 48.6 39.8 23.2 22.9-2.3 27-89.9 7.7-132.8-4.3c0 0-30.1-16.6 9.3-22.4s54.6-18.9 54.6-54.6m-31.9-98.6c14 4.4 29 0 29 0l30.1 14.3s32.8 4.2 21.2-21.3-44-32-44-32H537c-9.2-4.2-48.4 25.4-4.7 39z"/><path d="M583.3 567.6l27.2 27.2c5.2 5.3-2.9 25.3-19.9 18.4s-29.7-19.7-29.7-19.7-52.9-11.2-59.8-23.9 3.3-34.6 22.5-29.3 59.7 27.3 59.7 27.3zm-54.8 34.6L508 575.8"/><path d="M537.4 632.9s22.7 9.2 39.3 7.3c0 0 2.4 24.3 27.1 14.7 0 0 9.2-7 0-20.1 0 0 .7-26.3-34.4-29.3 0 0-27.6-13.9-35.9-7s-11.6 19.3-5 35.1a52 52 0 0 0 9.6 33.2c11.5 15.9 9.3 18.1 9.3 18.1m-8.6-180.2s-13.5-18.2-10.3-35.5 17-26.1 29.4-26.1c8.2 0 11.9 15.6 7.4 27.8-2.2 6.2-6.5 11.6-13.4 13.7m16.7 20.1l-2.7-35.4m131.7-164.5c-123.3 0-232.8-68.5-232.8-68.5"/></g></symbol><symbol id="book" viewBox="0 0 864 864"><g id="write" fill="none" stroke="#6C6F5C" stroke-miterlimit="10" stroke-width="13"><path d="M823.1 579S627.8 511.6 607 473s-76.3-70.4-108-70.4-59.4-17.8-59.4-29.7 22.8-33.7 78.2-16.8c0 0 51 9.4 60.4 0"/><path d="M491.1 350.5s36.6-43.2 36.6-67.7c0 0-3.9 37.1 12.9 37.1s14.9-15.3 14.9-15.3c-15.4 15.3 0 30.7 0 30.7"/><path d="M456.5 354.3s-19.4 1.1 34.6-43.8c0 0 14-42.6 32.2-46.5s47 18.8 85.7 18.8c0 0 26.7 2.3 37.6 33.8m17.8 27.6s41.6 85.2 131.8 100"/><path d="M555.5 360.2l134.9-28.7v-9.4l17-5.5-3.8-13.3-16.3 5.6v-5.6l-190 46.6m-44.2 39.8l-56.4 5.7 43.4-25.7"/><path d="M598.8 351l7.5 7.5 89.2-22.6-5.1-9.4m-397.8-43.7l221.1 347.8 181.8-102.1"/><path d="M565 274.2s-53.9-76.9-57.6-73.1-33.9 15.1-98 28.9-124.3 52.8-124.3 52.8-100.2 24.3-135.6 59.7c0 0-55.3 33.1-103 58.3 0 0-12.6-3.8 0 24.4l149.4 329.3 295.2-118.9s3.1 14.4 22.6-5M292.6 358.5l-177.7 77.8M330 405.6l-183.2 85.1m218.1-34l-186.1 78.7"/></g></symbol></svg>
